<svg width="556" height="556" viewBox="0 0 556 556" fill="none" xmlns="http://www.w3.org/2000/svg">
<path d="M263.974 84.2113C266.27 86.6168 269.366 90.9267 270.764 93.8333C273.76 100.248 276.856 102.954 282.348 103.856C287.641 104.758 288.24 103.956 284.945 100.549C283.447 98.945 280.75 94.8356 278.953 91.3276C275.058 83.5097 272.062 81.2045 265.072 80.5029L259.779 80.0017L263.974 84.2113Z" fill="black"/>
<path d="M284.445 82.2072C283.447 82.8086 283.846 83.5102 285.943 84.8132C290.737 87.9203 301.022 98.4443 304.218 103.255C307.114 107.866 310.909 119.994 309.81 121.096C308.412 122.499 301.022 118.991 296.429 114.882C293.633 112.376 291.136 110.672 290.936 111.073C289.838 112.877 287.241 128.914 287.241 133.925C287.241 158.983 304.617 179.129 327.087 180.231C331.78 180.532 336.773 180.131 339.969 179.229L345.361 177.726L348.557 182.937C350.355 185.744 352.751 189.653 353.95 191.657L356.147 195.266L352.452 198.673C350.554 200.578 344.862 206.792 339.869 212.605C334.976 218.419 330.582 223.53 330.082 224.031C329.683 224.532 327.686 223.53 325.589 221.626C321.095 217.717 311.508 213.006 306.115 212.104C304.018 211.703 302.221 211.002 302.221 210.5C302.221 208.496 306.415 198.673 309.111 194.364C311.208 191.056 312.806 189.653 315.203 189.252C319.497 188.35 318.698 186.646 312.706 183.539C308.512 181.434 306.315 181.033 299.225 181.033C290.237 181.033 285.544 182.737 280.451 187.548L278.154 189.653L271.962 185.744C268.567 183.639 263.973 180.933 261.677 179.73C258.581 178.126 257.382 176.823 256.484 173.716C253.588 163.994 244.7 156.477 233.915 154.573C223.229 152.668 215.141 155.575 210.946 162.691C207.551 168.504 206.852 174.017 208.65 179.229C209.948 183.138 209.948 183.639 208.25 185.142C205.354 187.748 203.057 194.965 203.756 198.974C204.455 202.783 209.249 208.596 211.745 208.596C212.644 208.596 213.543 209.799 213.842 211.302C215.64 219.822 220.633 224.633 227.524 224.633C230.32 224.633 231.318 225.134 231.818 226.637C232.117 227.64 233.815 229.744 235.513 231.248C238.109 233.353 239.307 233.754 242.403 233.252L246.098 232.651L250.692 240.369C253.288 244.578 255.185 248.086 255.086 248.187C254.886 248.287 251.89 249.89 248.295 251.795C239.707 256.305 227.224 268.834 211.446 288.779C197.165 306.821 174.397 329.873 162.912 338.092C155.822 343.103 145.736 348.716 138.446 351.623C136.149 352.525 136.249 352.725 141.242 354.329C152.327 358.038 171.8 357.937 182.885 354.028C190.175 351.422 188.977 352.826 179.49 357.837C170.602 362.548 171.301 363.049 186.879 363.65C194.669 363.951 199.462 363.65 203.357 362.548C206.353 361.746 208.949 361.245 209.149 361.445C209.349 361.546 207.651 363.049 205.454 364.552C203.257 366.156 201.36 367.76 201.36 368.161C201.36 369.464 211.446 369.063 217.837 367.459C221.132 366.657 224.428 366.056 225.127 365.956C227.024 365.956 226.625 369.965 222.331 391.414C218.636 410.257 218.436 411.46 219.934 414.467C220.833 416.17 222.331 418.476 223.329 419.578C225.027 421.483 225.027 422.284 223.03 437.319L221.032 452.955L218.037 453.556C212.944 454.558 208.749 457.966 206.253 462.877C204.955 465.583 203.756 467.889 203.557 468.089C203.457 468.39 200.161 468.891 196.267 469.292C189.376 470.094 187.479 470.695 188.477 471.697C191.174 474.303 253.288 476.709 295.73 475.807C338.271 474.905 360.141 473.301 360.141 471.196C360.141 469.993 354.848 469.192 342.965 468.49C336.973 468.189 332.18 467.688 332.18 467.488C332.18 467.287 338.671 459.67 346.66 450.649C354.649 441.629 361.14 433.811 361.14 433.209C361.14 431.305 354.848 424.991 351.054 422.986C342.465 418.676 336.873 421.382 330.881 432.909L327.486 439.223L323.691 430.904L319.896 422.585L322.093 419.077C323.292 417.173 325.189 413.665 326.188 411.46C328.185 407.35 328.185 407.15 326.288 400.936C325.289 397.428 323.591 391.514 322.693 387.806L320.995 381.191L326.088 374.776C332.18 367.259 338.371 355.732 340.668 347.413C341.567 344.106 343.164 340.698 344.163 339.896C346.06 338.292 347.858 327.368 346.36 326.465C345.861 326.165 345.461 320.652 345.461 314.037C345.461 307.522 345.162 301.308 344.762 300.105C344.263 298.401 347.758 294.793 366.732 277.654C386.804 259.512 389.8 257.107 393.495 256.606C402.283 255.203 411.47 247.986 416.164 238.665C419.459 232.05 419.959 220.022 417.263 212.305C413.168 200.778 403.881 191.758 392.197 188.049C385.306 185.844 374.521 186.345 367.93 189.352L363.237 191.457L358.144 183.038C355.448 178.527 353.151 174.418 353.151 174.017C353.151 173.616 354.948 171.211 357.245 168.805C359.442 166.4 362.738 161.388 364.435 157.68C367.331 151.566 367.631 150.163 367.531 141.443C367.531 134.126 366.932 130.618 365.334 126.308C356.147 102.955 336.773 87.3189 311.208 82.7084C302.92 81.2049 286.442 80.9043 284.445 82.2072ZM347.059 142.946C353.55 155.575 354.249 157.379 353.65 160.987C352.452 168.805 346.959 173.516 339.17 173.516C332.879 173.516 329.983 171.211 322.493 160.286C318.898 155.174 313.405 147.356 310.31 142.946C303.918 133.825 303.519 133.525 322.593 149.862L334.277 159.785L338.171 157.98C340.368 156.978 342.166 155.876 342.166 155.475C342.166 155.074 340.868 148.058 339.17 139.939C337.572 131.821 336.174 124.604 336.174 124.003C336.174 122.399 338.87 127.11 347.059 142.946ZM232.417 161.589C238.009 163.493 238.009 164.495 232.517 163.794C228.822 163.393 226.026 163.693 222.73 164.996C218.136 166.7 215.24 165.999 216.838 163.493C218.636 160.586 226.525 159.684 232.417 161.589ZM247.296 171.511C248.195 173.115 248.095 173.516 246.797 173.516C245.998 173.516 245.299 173.315 245.299 173.115C245.299 172.915 245 172.012 244.7 171.11C243.801 168.805 245.998 169.106 247.296 171.511ZM264.672 188.951L272.562 193.361L268.867 195.065C261.477 198.673 257.882 207.193 259.679 217.015C262.076 229.644 280.65 234.956 291.136 226.036L294.132 223.53L296.628 228.341C297.927 231.047 299.325 235.457 299.724 238.164C301.622 252.196 310.509 258.51 320.096 252.597C321.894 251.494 323.791 250.893 324.191 251.394C324.69 251.795 327.286 255.503 330.082 259.613C332.879 263.722 335.175 266.629 335.175 266.027C335.175 263.923 330.981 251.193 328.984 247.385C327.087 243.576 327.087 243.376 328.884 241.471C329.883 240.369 331.381 237.763 332.18 235.558C334.776 228.842 359.742 200.478 360.74 203.083C360.94 203.585 362.438 206.09 364.036 208.496L366.932 212.806L361.839 219.822C358.943 223.63 356.246 227.439 355.647 228.141C354.449 229.945 356.646 231.749 363.936 235.357L369.229 237.863L366.932 240.369C365.034 242.373 364.935 242.975 366.133 243.776C369.528 246.182 375.82 248.688 378.416 248.688C381.512 248.688 381.711 249.389 379.614 252.095C378.815 253.198 378.316 254.802 378.516 255.604C378.815 256.706 372.824 262.82 361.539 273.244C351.952 282.064 343.764 289.381 343.264 289.581C342.765 289.782 341.766 288.178 341.167 286.073C338.97 279.358 338.471 280.46 338.97 291.085C339.47 302.31 337.972 316.042 335.575 323.158C334.077 327.568 333.777 327.768 329.383 328.47C322.093 329.573 297.627 328.069 286.842 325.964C281.449 324.862 276.756 323.659 276.456 323.459C276.256 323.158 277.355 321.254 278.953 319.149C288.639 306.62 294.232 293.39 294.232 282.866C294.232 279.157 293.932 275.75 293.533 275.449C293.233 275.048 292.035 277.955 291.136 281.763C285.843 302.611 262.675 334.484 242.103 349.217C234.913 354.329 223.03 360.944 220.833 360.944C220.134 360.944 222.53 357.937 226.225 354.129C232.117 348.215 243.002 332.179 241.804 331.076C241.604 330.876 239.307 332.78 236.611 335.386C230.719 341.099 217.637 349.819 210.547 352.826C207.651 354.028 202.957 355.331 200.161 355.632L195.168 356.233L200.361 351.322C206.552 345.509 213.243 336.288 216.239 329.472C217.338 326.766 218.336 324.361 218.336 324.06C218.336 323.859 216.139 325.664 213.443 328.169C203.057 337.892 188.577 345.409 174.197 348.315C162.313 350.821 155.323 350.12 161.714 347.213C165.209 345.509 179.39 334.584 186.78 327.869C196.666 318.848 205.154 309.026 214.442 295.896C225.826 279.959 246.298 259.412 255.385 254.802C263.574 250.793 271.962 249.69 277.555 251.995C282.248 254 282.348 252.496 277.655 249.59C275.358 248.187 271.663 247.084 267.868 246.783L261.776 246.182L256.384 237.161C245.998 219.621 238.309 203.885 238.309 199.876C238.309 191.557 244.9 184.541 252.689 184.541C255.585 184.541 258.98 185.844 264.672 188.951ZM302.221 186.947C302.221 187.147 300.623 188.35 298.626 189.653C296.628 190.856 292.634 195.165 289.638 199.175C284.046 206.792 281.849 208.596 278.354 208.596C276.856 208.596 276.456 208.195 276.956 206.792C277.655 205.188 277.455 205.188 275.258 206.692C271.863 208.897 271.463 212.906 274.459 215.011C277.255 217.015 278.354 217.015 277.655 215.111C277.155 214.008 277.754 213.608 279.452 213.608C283.147 213.608 288.14 209.799 292.235 203.885C298.326 194.965 304.018 189.953 300.723 196.268C299.924 197.872 297.827 202.582 296.129 206.892C291.236 219.02 286.442 223.63 278.354 223.63C272.661 223.63 269.566 222.127 267.269 218.419C262.376 210.3 267.568 199.575 276.456 199.575C278.054 199.575 280.151 198.072 282.648 194.965C287.042 189.753 292.934 186.646 298.526 186.546C300.523 186.546 302.221 186.746 302.221 186.947ZM212.145 190.054C211.346 191.958 211.346 193.562 212.145 196.268C213.343 200.277 212.544 202.282 210.048 201.279C207.052 200.177 207.351 193.261 210.547 189.553C212.944 186.846 213.543 187.047 212.145 190.054ZM396.691 197.07C406.377 201.881 413.168 212.906 412.968 223.931C412.869 233.653 407.376 242.975 399.387 246.984C394.494 249.49 388.103 251.193 388.103 249.991C388.103 249.69 390.3 247.084 392.996 244.177C398.089 238.765 400.086 234.054 399.986 227.64V224.132L398.089 229.043C395.692 235.257 390.799 240.369 386.006 241.872C382.211 242.975 375.12 242.273 375.12 240.77C375.12 240.369 377.817 237.663 381.112 234.756C385.906 230.546 387.304 228.542 388.602 224.432C389.401 221.526 390.1 217.917 390 216.213V213.106L388.502 217.015C384.707 227.339 379.714 231.248 371.226 230.446C368.33 230.145 365.534 229.444 365.034 228.943C364.335 228.241 365.634 225.635 369.029 221.024C375.52 212.104 377.118 206.191 374.921 199.976L373.323 195.566L376.019 194.965C377.417 194.664 379.115 194.163 379.614 193.963C382.211 192.96 391.897 194.664 396.691 197.07ZM327.786 227.84C329.383 231.047 329.583 232.651 328.185 232.651C327.486 232.651 325.389 229.043 322.393 222.127C321.394 219.922 326.487 225.334 327.786 227.84ZM315.103 228.742C320.895 234.656 322.992 242.674 318.798 242.674C317.3 242.674 316.901 241.672 315.702 235.959C315.403 234.255 313.705 230.947 312.107 228.742C308.312 223.43 310.11 223.43 315.103 228.742ZM271.962 350.721C274.858 357.737 281.949 374.876 287.641 388.708C296.229 409.856 297.727 414.266 296.628 415.168C295.83 415.87 295.031 416.17 294.731 415.97C294.332 415.469 274.659 381.892 264.772 364.853C261.477 359.04 258.082 352.425 257.283 350.12L255.984 345.81L260.278 341.4C262.575 338.994 265.072 337.29 265.671 337.491C266.27 337.691 269.166 343.705 271.962 350.721ZM332.779 350.12C329.184 359.741 320.396 373.774 318.898 372.37C318.598 372.07 320.396 368.161 322.792 363.55C325.189 359.04 327.786 353.327 328.684 350.921C329.483 348.416 330.382 345.81 330.682 345.108C330.881 344.507 331.98 343.905 333.178 343.905C335.175 343.905 335.076 344.006 332.779 350.12ZM319.098 346.411C319.497 346.912 316.202 357.236 315.303 358.238C314.903 358.639 313.505 357.336 312.107 355.231C310.809 353.227 309.211 351.422 308.612 351.222C307.913 351.022 310.11 361.546 313.805 376.179C317.3 390.111 320.196 402.138 320.196 402.74C320.196 403.943 315.503 405.747 314.604 404.845C314.404 404.544 310.11 391.715 305.217 376.179C300.224 360.744 296.029 347.413 295.73 346.712C295.33 345.609 297.527 345.509 306.914 345.709C313.405 345.91 318.898 346.311 319.098 346.411ZM245.798 374.174C250.692 381.391 261.377 396.726 269.466 408.252C277.455 419.678 283.746 429.3 283.247 429.601C282.448 430.102 257.582 401.938 244.8 386.102C238.309 377.883 232.317 367.259 232.317 363.751C232.317 362.147 233.615 361.145 235.812 361.044C236.411 361.044 240.805 366.958 245.798 374.174ZM234.614 383.796L237.31 387.505L234.114 398.831C231.019 409.956 230.919 410.157 228.422 409.555C227.024 409.154 225.726 408.854 225.726 408.753C225.526 408.553 229.721 387.004 230.819 382.193C231.119 380.99 231.518 379.988 231.718 379.988C231.918 379.988 233.216 381.692 234.614 383.796ZM249.793 402.038C251.59 403.943 251.491 404.243 248.894 411.059C247.396 414.968 245.898 418.075 245.599 418.075C245.199 418.075 241.105 416.07 240.506 415.569C240.006 415.068 246.497 400.034 247.296 400.034C247.696 400.034 248.794 400.936 249.793 402.038ZM262.376 416.672C264.073 418.175 263.973 418.476 260.978 423.086C257.982 427.597 257.782 427.797 255.585 426.394L253.388 424.89L256.584 419.979C258.381 417.273 259.979 415.068 260.179 415.068C260.478 415.068 261.377 415.77 262.376 416.672ZM314.903 426.895C317.699 433.31 321.494 442.03 323.292 446.139C325.189 450.248 326.787 453.857 326.887 454.057C327.586 455.16 331.381 448.845 333.777 442.531C335.175 438.622 337.672 433.711 339.17 431.505C341.367 428.298 342.366 427.597 344.762 427.797C347.858 428.098 352.651 431.105 352.651 432.909C352.651 433.51 347.259 440.125 340.768 447.642L328.884 461.173H321.794C314.604 461.173 313.805 460.071 319.896 458.467L323.092 457.665L310.31 440.626C300.024 426.995 297.627 423.287 298.626 422.184C299.824 420.681 308.213 415.068 309.111 415.068C309.511 415.068 312.007 420.38 314.903 426.895ZM239.407 422.685C242.703 424.59 245.299 426.594 245.299 426.995C245.299 427.496 242.902 434.913 240.006 443.533L234.714 459.169H237.31C238.708 459.169 243.002 457.866 246.797 456.262C250.692 454.658 255.385 453.055 257.382 452.654C260.578 452.052 261.277 452.353 263.174 454.658C264.373 456.262 265.272 458.868 265.272 460.772V464.18H256.983C252.389 464.18 240.306 464.481 230.22 464.882C212.544 465.483 211.945 465.483 213.343 463.679C215.24 461.374 220.433 459.169 224.128 459.169H227.024L229.321 439.123C230.719 428.098 232.117 419.077 232.617 419.077C233.116 419.077 236.212 420.681 239.407 422.685ZM275.258 431.606C281.349 438.622 281.949 439.123 285.843 439.123C288.14 439.123 291.935 438.421 294.332 437.619C296.628 436.717 298.925 436.417 299.225 436.818C299.624 437.319 302.72 441.328 306.115 445.938L312.407 454.157L309.81 457.264C308.113 459.269 307.214 461.474 307.214 463.879V467.488L299.025 466.886C294.431 466.485 286.442 466.185 281.25 466.185H271.763L271.663 461.374C271.463 455.961 269.166 450.549 265.871 447.943C263.274 445.738 254.486 445.638 248.794 447.642C246.697 448.444 244.7 448.945 244.6 448.745C244.4 448.645 245.499 445.237 246.997 441.228C248.894 436.016 249.993 434.212 250.991 434.613C251.79 434.913 254.187 435.414 256.284 435.715C260.079 436.316 260.179 436.316 263.973 430.203C266.071 426.895 267.968 424.189 268.267 424.189C268.567 424.189 271.663 427.496 275.258 431.606Z" fill="black"/>
<path d="M251.491 190.251C250.193 192.657 251.79 196.666 253.688 195.964C254.587 195.563 254.986 196.064 254.986 197.267C254.786 199.472 258.681 200.274 260.878 198.57C262.975 196.666 262.576 194.762 259.38 191.454C256.084 188.146 252.789 187.645 251.491 190.251Z" fill="black"/>
<path d="M322.493 278.455C319.697 281.462 318.798 281.762 313.705 281.762C310.01 281.762 306.714 281.061 304.018 279.657L299.924 277.553L302.121 280.559C308.013 288.979 320.695 289.58 324.79 281.662C325.589 279.958 326.188 277.853 325.988 276.951C325.788 275.548 325.089 275.849 322.493 278.455Z" fill="black"/>
<path d="M316.501 277.451C315.802 277.652 315.203 278.354 315.203 278.955C315.203 280.158 319.297 279.557 319.297 278.253C319.397 277.05 318.199 276.75 316.501 277.451Z" fill="black"/>
<path d="M285.444 194.062C283.347 195.666 282.448 197.57 284.046 197.57C285.544 197.47 288.44 194.664 288.04 193.561C287.841 192.96 286.942 193.06 285.444 194.062Z" fill="black"/>
</svg>
